<svg width="16" height="16" viewBox="0 0 16 16" fill="none" xmlns="http://www.w3.org/2000/svg">
<path d="M7.66678 1.91669C8.72096 1.91669 9.58347 2.77921 9.58347 3.83339C9.58347 4.88757 8.72096 5.75008 7.66678 5.75008C6.6126 5.75008 5.75008 4.88757 5.75008 3.83339C5.75008 2.77921 6.6126 1.91669 7.66678 1.91669ZM7.66678 11.5002C10.2543 11.5002 13.2252 12.7364 13.4169 13.4169H1.91669C2.13711 12.7269 5.08882 11.5002 7.66678 11.5002ZM7.66678 0C5.54883 0 3.83339 1.71544 3.83339 3.83339C3.83339 5.95134 5.54883 7.66678 7.66678 7.66678C9.78473 7.66678 11.5002 5.95134 11.5002 3.83339C11.5002 1.71544 9.78473 0 7.66678 0ZM7.66678 9.58347C5.10799 9.58347 0 10.8677 0 13.4169V15.3336H15.3336V13.4169C15.3336 10.8677 10.2256 9.58347 7.66678 9.58347Z" fill="black"/>
</svg>
