<svg width="41" height="41" viewBox="0 0 41 41" fill="none" xmlns="http://www.w3.org/2000/svg">
<path d="M20.5001 3.41681C11.0701 3.41681 3.41675 11.0701 3.41675 20.5001C3.41675 29.9301 11.0701 37.5835 20.5001 37.5835C29.9301 37.5835 37.5834 29.9301 37.5834 20.5001C37.5834 11.0701 29.9301 3.41681 20.5001 3.41681ZM20.5001 34.1668C12.9663 34.1668 6.83342 28.0339 6.83342 20.5001C6.83342 12.9664 12.9663 6.83348 20.5001 6.83348C28.0338 6.83348 34.1668 12.9664 34.1668 20.5001C34.1668 28.0339 28.0338 34.1668 20.5001 34.1668ZM11.1042 29.896L23.9338 23.9339L29.8959 11.1043L17.0663 17.0664L11.1042 29.896ZM20.5001 18.621C21.5422 18.621 22.3793 19.4581 22.3793 20.5001C22.3793 21.5422 21.5422 22.3793 20.5001 22.3793C19.458 22.3793 18.6209 21.5422 18.6209 20.5001C18.6209 19.4581 19.458 18.621 20.5001 18.621Z" fill="white"/>
</svg>
