<svg width="16" height="21" viewBox="0 0 16 21" fill="none" xmlns="http://www.w3.org/2000/svg">
<path d="M15.4963 15.4062L14.1526 14.0625V8.85417C14.1526 5.65625 12.4442 2.97917 9.46508 2.27083V1.5625C9.46508 0.697917 8.76716 0 7.90258 0C7.038 0 6.34008 0.697917 6.34008 1.5625V2.27083C3.3505 2.97917 1.65258 5.64583 1.65258 8.85417V14.0625L0.30883 15.4062C-0.34742 16.0625 0.110914 17.1875 1.038 17.1875H14.7567C15.6942 17.1875 16.1526 16.0625 15.4963 15.4062ZM12.0692 15.1042H3.73591V8.85417C3.73591 6.27083 5.30883 4.16667 7.90258 4.16667C10.4963 4.16667 12.0692 6.27083 12.0692 8.85417V15.1042ZM7.90258 20.3125C9.04841 20.3125 9.98591 19.375 9.98591 18.2292H5.81925C5.81925 19.375 6.74633 20.3125 7.90258 20.3125Z" fill="black"/>
</svg>
