<svg width="22" height="15" viewBox="0 0 22 15" fill="none" xmlns="http://www.w3.org/2000/svg">
<path d="M10.5417 1.91667C14.1737 1.91667 17.4129 3.95792 18.9942 7.1875C17.4129 10.4171 14.1833 12.4583 10.5417 12.4583C6.9 12.4583 3.67042 10.4171 2.08917 7.1875C3.67042 3.95792 6.90958 1.91667 10.5417 1.91667ZM10.5417 0C5.75 0 1.65792 2.98042 0 7.1875C1.65792 11.3946 5.75 14.375 10.5417 14.375C15.3333 14.375 19.4254 11.3946 21.0833 7.1875C19.4254 2.98042 15.3333 0 10.5417 0ZM10.5417 4.79167C11.8642 4.79167 12.9375 5.865 12.9375 7.1875C12.9375 8.51 11.8642 9.58333 10.5417 9.58333C9.21917 9.58333 8.14583 8.51 8.14583 7.1875C8.14583 5.865 9.21917 4.79167 10.5417 4.79167ZM10.5417 2.875C8.165 2.875 6.22917 4.81083 6.22917 7.1875C6.22917 9.56417 8.165 11.5 10.5417 11.5C12.9183 11.5 14.8542 9.56417 14.8542 7.1875C14.8542 4.81083 12.9183 2.875 10.5417 2.875Z" fill="black"/>
</svg>
